<?xml version="1.0" standalone="no"?>
<svg xmlns:xlink="http://www.w3.org/1999/xlink" id="wave" style="transform:rotate(180deg); transition: 0.3s" viewBox="0 0 1440 490" version="1.1" xmlns="http://www.w3.org/2000/svg"><defs><linearGradient id="sw-gradient-0" x1="0" x2="0" y1="1" y2="0"><stop stop-color="rgba(186.448, 57.579, 228.034, 1)" offset="0%"/><stop stop-color="rgba(123.272, 74.346, 191.606, 1)" offset="100%"/></linearGradient></defs><path style="transform:translate(0, 0px); opacity:1" fill="url(#sw-gradient-0)" d="M0,0L80,57.2C160,114,320,229,480,236.8C640,245,800,147,960,155.2C1120,163,1280,278,1440,310.3C1600,343,1760,294,1920,228.7C2080,163,2240,82,2400,89.8C2560,98,2720,196,2880,196C3040,196,3200,98,3360,57.2C3520,16,3680,33,3840,40.8C4000,49,4160,49,4320,81.7C4480,114,4640,180,4800,196C4960,212,5120,180,5280,204.2C5440,229,5600,310,5760,294C5920,278,6080,163,6240,122.5C6400,82,6560,114,6720,179.7C6880,245,7040,343,7200,375.7C7360,408,7520,376,7680,351.2C7840,327,8000,310,8160,261.3C8320,212,8480,131,8640,155.2C8800,180,8960,310,9120,318.5C9280,327,9440,212,9600,212.3C9760,212,9920,327,10080,343C10240,359,10400,278,10560,236.8C10720,196,10880,196,11040,236.8C11200,278,11360,359,11440,400.2L11520,441L11520,490L11440,490C11360,490,11200,490,11040,490C10880,490,10720,490,10560,490C10400,490,10240,490,10080,490C9920,490,9760,490,9600,490C9440,490,9280,490,9120,490C8960,490,8800,490,8640,490C8480,490,8320,490,8160,490C8000,490,7840,490,7680,490C7520,490,7360,490,7200,490C7040,490,6880,490,6720,490C6560,490,6400,490,6240,490C6080,490,5920,490,5760,490C5600,490,5440,490,5280,490C5120,490,4960,490,4800,490C4640,490,4480,490,4320,490C4160,490,4000,490,3840,490C3680,490,3520,490,3360,490C3200,490,3040,490,2880,490C2720,490,2560,490,2400,490C2240,490,2080,490,1920,490C1760,490,1600,490,1440,490C1280,490,1120,490,960,490C800,490,640,490,480,490C320,490,160,490,80,490L0,490Z"/><defs><linearGradient id="sw-gradient-1" x1="0" x2="0" y1="1" y2="0"><stop stop-color="rgba(129.182, 34.557, 187.052, 1)" offset="0%"/><stop stop-color="rgba(158.866, 101.458, 212.097, 1)" offset="100%"/></linearGradient></defs><path style="transform:translate(0, 50px); opacity:0.9" fill="url(#sw-gradient-1)" d="M0,343L80,334.8C160,327,320,310,480,253.2C640,196,800,98,960,57.2C1120,16,1280,33,1440,106.2C1600,180,1760,310,1920,334.8C2080,359,2240,278,2400,269.5C2560,261,2720,327,2880,351.2C3040,376,3200,359,3360,343C3520,327,3680,310,3840,261.3C4000,212,4160,131,4320,81.7C4480,33,4640,16,4800,81.7C4960,147,5120,294,5280,343C5440,392,5600,343,5760,302.2C5920,261,6080,229,6240,220.5C6400,212,6560,229,6720,261.3C6880,294,7040,343,7200,334.8C7360,327,7520,261,7680,220.5C7840,180,8000,163,8160,187.8C8320,212,8480,278,8640,269.5C8800,261,8960,180,9120,171.5C9280,163,9440,229,9600,261.3C9760,294,9920,294,10080,310.3C10240,327,10400,359,10560,334.8C10720,310,10880,229,11040,228.7C11200,229,11360,310,11440,351.2L11520,392L11520,490L11440,490C11360,490,11200,490,11040,490C10880,490,10720,490,10560,490C10400,490,10240,490,10080,490C9920,490,9760,490,9600,490C9440,490,9280,490,9120,490C8960,490,8800,490,8640,490C8480,490,8320,490,8160,490C8000,490,7840,490,7680,490C7520,490,7360,490,7200,490C7040,490,6880,490,6720,490C6560,490,6400,490,6240,490C6080,490,5920,490,5760,490C5600,490,5440,490,5280,490C5120,490,4960,490,4800,490C4640,490,4480,490,4320,490C4160,490,4000,490,3840,490C3680,490,3520,490,3360,490C3200,490,3040,490,2880,490C2720,490,2560,490,2400,490C2240,490,2080,490,1920,490C1760,490,1600,490,1440,490C1280,490,1120,490,960,490C800,490,640,490,480,490C320,490,160,490,80,490L0,490Z"/></svg>