<?xml version="1.0" standalone="no"?>
<svg xmlns:xlink="http://www.w3.org/1999/xlink" id="wave" style="transform:rotate(0deg); transition: 0.3s" viewBox="0 0 1440 490" version="1.1" xmlns="http://www.w3.org/2000/svg"><defs><linearGradient id="sw-gradient-0" x1="0" x2="0" y1="1" y2="0"><stop stop-color="rgba(243, 106, 62, 1)" offset="0%"/><stop stop-color="rgba(255, 179, 11, 1)" offset="100%"/></linearGradient></defs><path style="transform:translate(0, 0px); opacity:1" fill="url(#sw-gradient-0)" d="M0,98L80,106.2C160,114,320,131,480,114.3C640,98,800,49,960,57.2C1120,65,1280,131,1440,196C1600,261,1760,327,1920,318.5C2080,310,2240,229,2400,220.5C2560,212,2720,278,2880,253.2C3040,229,3200,114,3360,130.7C3520,147,3680,294,3840,359.3C4000,425,4160,408,4320,383.8C4480,359,4640,327,4800,261.3C4960,196,5120,98,5280,89.8C5440,82,5600,163,5760,187.8C5920,212,6080,180,6240,138.8C6400,98,6560,49,6720,89.8C6880,131,7040,261,7200,269.5C7360,278,7520,163,7680,171.5C7840,180,8000,310,8160,343C8320,376,8480,310,8640,285.8C8800,261,8960,278,9120,236.8C9280,196,9440,98,9600,114.3C9760,131,9920,261,10080,285.8C10240,310,10400,229,10560,204.2C10720,180,10880,212,11040,245C11200,278,11360,310,11440,326.7L11520,343L11520,490L11440,490C11360,490,11200,490,11040,490C10880,490,10720,490,10560,490C10400,490,10240,490,10080,490C9920,490,9760,490,9600,490C9440,490,9280,490,9120,490C8960,490,8800,490,8640,490C8480,490,8320,490,8160,490C8000,490,7840,490,7680,490C7520,490,7360,490,7200,490C7040,490,6880,490,6720,490C6560,490,6400,490,6240,490C6080,490,5920,490,5760,490C5600,490,5440,490,5280,490C5120,490,4960,490,4800,490C4640,490,4480,490,4320,490C4160,490,4000,490,3840,490C3680,490,3520,490,3360,490C3200,490,3040,490,2880,490C2720,490,2560,490,2400,490C2240,490,2080,490,1920,490C1760,490,1600,490,1440,490C1280,490,1120,490,960,490C800,490,640,490,480,490C320,490,160,490,80,490L0,490Z"/><defs><linearGradient id="sw-gradient-1" x1="0" x2="0" y1="1" y2="0"><stop stop-color="rgba(243, 106, 62, 1)" offset="0%"/><stop stop-color="rgba(255, 179, 11, 1)" offset="100%"/></linearGradient></defs><path style="transform:translate(0, 50px); opacity:0.9" fill="url(#sw-gradient-1)" d="M0,392L80,383.8C160,376,320,359,480,343C640,327,800,310,960,269.5C1120,229,1280,163,1440,179.7C1600,196,1760,294,1920,294C2080,294,2240,196,2400,204.2C2560,212,2720,327,2880,367.5C3040,408,3200,376,3360,310.3C3520,245,3680,147,3840,138.8C4000,131,4160,212,4320,261.3C4480,310,4640,327,4800,302.2C4960,278,5120,212,5280,171.5C5440,131,5600,114,5760,122.5C5920,131,6080,163,6240,171.5C6400,180,6560,163,6720,138.8C6880,114,7040,82,7200,114.3C7360,147,7520,245,7680,285.8C7840,327,8000,310,8160,285.8C8320,261,8480,229,8640,204.2C8800,180,8960,163,9120,171.5C9280,180,9440,212,9600,236.8C9760,261,9920,278,10080,285.8C10240,294,10400,294,10560,261.3C10720,229,10880,163,11040,187.8C11200,212,11360,327,11440,383.8L11520,441L11520,490L11440,490C11360,490,11200,490,11040,490C10880,490,10720,490,10560,490C10400,490,10240,490,10080,490C9920,490,9760,490,9600,490C9440,490,9280,490,9120,490C8960,490,8800,490,8640,490C8480,490,8320,490,8160,490C8000,490,7840,490,7680,490C7520,490,7360,490,7200,490C7040,490,6880,490,6720,490C6560,490,6400,490,6240,490C6080,490,5920,490,5760,490C5600,490,5440,490,5280,490C5120,490,4960,490,4800,490C4640,490,4480,490,4320,490C4160,490,4000,490,3840,490C3680,490,3520,490,3360,490C3200,490,3040,490,2880,490C2720,490,2560,490,2400,490C2240,490,2080,490,1920,490C1760,490,1600,490,1440,490C1280,490,1120,490,960,490C800,490,640,490,480,490C320,490,160,490,80,490L0,490Z"/><defs><linearGradient id="sw-gradient-2" x1="0" x2="0" y1="1" y2="0"><stop stop-color="rgba(243, 106, 62, 1)" offset="0%"/><stop stop-color="rgba(255, 179, 11, 1)" offset="100%"/></linearGradient></defs><path style="transform:translate(0, 100px); opacity:0.8" fill="url(#sw-gradient-2)" d="M0,196L80,220.5C160,245,320,294,480,285.8C640,278,800,212,960,204.2C1120,196,1280,245,1440,285.8C1600,327,1760,359,1920,383.8C2080,408,2240,425,2400,383.8C2560,343,2720,245,2880,228.7C3040,212,3200,278,3360,302.2C3520,327,3680,310,3840,253.2C4000,196,4160,98,4320,98C4480,98,4640,196,4800,212.3C4960,229,5120,163,5280,179.7C5440,196,5600,294,5760,310.3C5920,327,6080,261,6240,261.3C6400,261,6560,327,6720,310.3C6880,294,7040,196,7200,187.8C7360,180,7520,261,7680,269.5C7840,278,8000,212,8160,204.2C8320,196,8480,245,8640,220.5C8800,196,8960,98,9120,89.8C9280,82,9440,163,9600,236.8C9760,310,9920,376,10080,343C10240,310,10400,180,10560,155.2C10720,131,10880,212,11040,253.2C11200,294,11360,294,11440,294L11520,294L11520,490L11440,490C11360,490,11200,490,11040,490C10880,490,10720,490,10560,490C10400,490,10240,490,10080,490C9920,490,9760,490,9600,490C9440,490,9280,490,9120,490C8960,490,8800,490,8640,490C8480,490,8320,490,8160,490C8000,490,7840,490,7680,490C7520,490,7360,490,7200,490C7040,490,6880,490,6720,490C6560,490,6400,490,6240,490C6080,490,5920,490,5760,490C5600,490,5440,490,5280,490C5120,490,4960,490,4800,490C4640,490,4480,490,4320,490C4160,490,4000,490,3840,490C3680,490,3520,490,3360,490C3200,490,3040,490,2880,490C2720,490,2560,490,2400,490C2240,490,2080,490,1920,490C1760,490,1600,490,1440,490C1280,490,1120,490,960,490C800,490,640,490,480,490C320,490,160,490,80,490L0,490Z"/></svg>