<?xml version="1.0" standalone="no"?>
<svg xmlns:xlink="http://www.w3.org/1999/xlink" id="wave" style="transform:rotate(180deg); transition: 0.3s" viewBox="0 0 1440 490" version="1.1" xmlns="http://www.w3.org/2000/svg"><defs><linearGradient id="sw-gradient-0" x1="0" x2="0" y1="1" y2="0"><stop stop-color="rgba(186.448, 57.579, 228.034, 1)" offset="0%"/><stop stop-color="rgba(123.272, 74.346, 191.606, 1)" offset="100%"/></linearGradient></defs><path style="transform:translate(0, 0px); opacity:1" fill="url(#sw-gradient-0)" d="M0,294L48,285.8C96,278,192,261,288,220.5C384,180,480,114,576,89.8C672,65,768,82,864,122.5C960,163,1056,229,1152,220.5C1248,212,1344,131,1440,138.8C1536,147,1632,245,1728,236.8C1824,229,1920,114,2016,89.8C2112,65,2208,131,2304,130.7C2400,131,2496,65,2592,32.7C2688,0,2784,0,2880,49C2976,98,3072,196,3168,196C3264,196,3360,98,3456,122.5C3552,147,3648,294,3744,302.2C3840,310,3936,180,4032,138.8C4128,98,4224,147,4320,187.8C4416,229,4512,261,4608,253.2C4704,245,4800,196,4896,155.2C4992,114,5088,82,5184,98C5280,114,5376,180,5472,204.2C5568,229,5664,212,5760,220.5C5856,229,5952,261,6048,269.5C6144,278,6240,261,6336,269.5C6432,278,6528,310,6624,277.7C6720,245,6816,147,6864,98L6912,49L6912,490L6864,490C6816,490,6720,490,6624,490C6528,490,6432,490,6336,490C6240,490,6144,490,6048,490C5952,490,5856,490,5760,490C5664,490,5568,490,5472,490C5376,490,5280,490,5184,490C5088,490,4992,490,4896,490C4800,490,4704,490,4608,490C4512,490,4416,490,4320,490C4224,490,4128,490,4032,490C3936,490,3840,490,3744,490C3648,490,3552,490,3456,490C3360,490,3264,490,3168,490C3072,490,2976,490,2880,490C2784,490,2688,490,2592,490C2496,490,2400,490,2304,490C2208,490,2112,490,2016,490C1920,490,1824,490,1728,490C1632,490,1536,490,1440,490C1344,490,1248,490,1152,490C1056,490,960,490,864,490C768,490,672,490,576,490C480,490,384,490,288,490C192,490,96,490,48,490L0,490Z"/><defs><linearGradient id="sw-gradient-1" x1="0" x2="0" y1="1" y2="0"><stop stop-color="rgba(129.182, 34.557, 187.052, 1)" offset="0%"/><stop stop-color="rgba(158.866, 101.458, 212.097, 1)" offset="100%"/></linearGradient></defs><path style="transform:translate(0, 50px); opacity:0.9" fill="url(#sw-gradient-1)" d="M0,245L48,236.8C96,229,192,212,288,228.7C384,245,480,294,576,269.5C672,245,768,147,864,155.2C960,163,1056,278,1152,302.2C1248,327,1344,261,1440,196C1536,131,1632,65,1728,32.7C1824,0,1920,0,2016,16.3C2112,33,2208,65,2304,73.5C2400,82,2496,65,2592,73.5C2688,82,2784,114,2880,155.2C2976,196,3072,245,3168,261.3C3264,278,3360,261,3456,220.5C3552,180,3648,114,3744,73.5C3840,33,3936,16,4032,57.2C4128,98,4224,196,4320,245C4416,294,4512,294,4608,261.3C4704,229,4800,163,4896,155.2C4992,147,5088,196,5184,253.2C5280,310,5376,376,5472,359.3C5568,343,5664,245,5760,236.8C5856,229,5952,310,6048,351.2C6144,392,6240,392,6336,359.3C6432,327,6528,261,6624,228.7C6720,196,6816,196,6864,196L6912,196L6912,490L6864,490C6816,490,6720,490,6624,490C6528,490,6432,490,6336,490C6240,490,6144,490,6048,490C5952,490,5856,490,5760,490C5664,490,5568,490,5472,490C5376,490,5280,490,5184,490C5088,490,4992,490,4896,490C4800,490,4704,490,4608,490C4512,490,4416,490,4320,490C4224,490,4128,490,4032,490C3936,490,3840,490,3744,490C3648,490,3552,490,3456,490C3360,490,3264,490,3168,490C3072,490,2976,490,2880,490C2784,490,2688,490,2592,490C2496,490,2400,490,2304,490C2208,490,2112,490,2016,490C1920,490,1824,490,1728,490C1632,490,1536,490,1440,490C1344,490,1248,490,1152,490C1056,490,960,490,864,490C768,490,672,490,576,490C480,490,384,490,288,490C192,490,96,490,48,490L0,490Z"/></svg>